<svg width="20" height="13" viewBox="0 0 20 13" fill="none" xmlns="http://www.w3.org/2000/svg">
<g clip-path="url(#clip0_7_514)">
<path d="M19.8879 0.0889511H15.6068V2.5675H19.8879V0.0889511Z" fill="#E6E6E6"/>
<path d="M19.8879 3.54079H15.6068V6.01934H19.8879V3.54079Z" fill="#E6E6E6"/>
<path d="M19.8879 6.99092H15.6068V9.46947H19.8879V6.99092Z" fill="#E6E6E6"/>
<path d="M4.36893 10.4428H0.0878906V12.9213H4.36893V10.4428Z" fill="#E6E6E6"/>
<path d="M9.54135 10.4428H5.26031V12.9213H9.54135V10.4428Z" fill="#E6E6E6"/>
<path d="M14.7154 10.4428H10.4344V12.9213H14.7154V10.4428Z" fill="#E6E6E6"/>
<path d="M19.8879 10.4428H15.6068V12.9213H19.8879V10.4428Z" fill="#E6E6E6"/>
<path d="M14.7154 6.99092H10.4344V9.46947H14.7154V6.99092Z" fill="#E6E6E6"/>
<path d="M9.54135 6.99092H5.26031V9.46947H9.54135V6.99092Z" fill="#E6E6E6"/>
<path d="M9.54135 3.54079H5.26031V6.01934H9.54135V3.54079Z" fill="#E6E6E6"/>
</g>
<defs>
<clipPath id="clip0_7_514">
<rect width="20" height="13" fill="white"/>
</clipPath>
</defs>
</svg>
