<svg width="139" height="30" viewBox="0 0 139 30" fill="none" xmlns="http://www.w3.org/2000/svg">
<path d="M20 18.125C22.075 18.125 23.7375 16.45 23.7375 14.375C23.7375 12.3 22.075 10.625 20 10.625C17.925 10.625 16.25 12.3 16.25 14.375C16.25 16.45 17.925 18.125 20 18.125ZM10 18.125C12.075 18.125 13.7375 16.45 13.7375 14.375C13.7375 12.3 12.075 10.625 10 10.625C7.92501 10.625 6.25 12.3 6.25 14.375C6.25 16.45 7.92501 18.125 10 18.125ZM10 20.625C7.08751 20.625 1.25 22.0875 1.25 25V26.875C1.25 27.5625 1.8125 28.125 2.5 28.125H17.5C18.1875 28.125 18.75 27.5625 18.75 26.875V25C18.75 22.0875 12.9125 20.625 10 20.625ZM20 20.625C19.6375 20.625 19.225 20.65 18.7875 20.6875C18.8125 20.7 18.825 20.725 18.8375 20.7375C20.2625 21.775 21.25 23.1625 21.25 25V26.875C21.25 27.3125 21.1625 27.7375 21.025 28.125H27.5C28.1875 28.125 28.75 27.5625 28.75 26.875V25C28.75 22.0875 22.9125 20.625 20 20.625Z" fill="#E4663A"/>
<path d="M23.75 1.25001C23.1251 0.625004 11.875 0.624994 11.25 1.25C10.625 1.87501 11.25 15 11.25 15C11.25 15 10.0001 17.5 12.5 16.875C15 16.25 13.125 3.75001 13.75 3.125C14.3751 2.5 20.625 2.50001 21.25 3.125C21.875 3.74999 21.6667 13.8889 21.6667 13.8889C21.6667 13.8889 21.8751 16.875 23.1251 16.25C24.3751 15.625 24.375 1.87501 23.75 1.25001Z" fill="#E4663A"/>
<path d="M45.1953 24H42.4023V14C42.4023 13.8047 42.3633 13.6224 42.2852 13.4531C42.2135 13.2839 42.1126 13.1374 41.9824 13.0137C41.8587 12.8835 41.7122 12.7826 41.543 12.7109C41.3737 12.6393 41.1914 12.6035 40.9961 12.6035C40.8008 12.6035 40.6185 12.6393 40.4492 12.7109C40.2799 12.7826 40.1302 12.8835 40 13.0137C39.8763 13.1374 39.7786 13.2839 39.707 13.4531C39.6354 13.6224 39.5996 13.8047 39.5996 14V24H36.7969V14C36.7969 13.8047 36.7611 13.6224 36.6895 13.4531C36.6178 13.2839 36.5169 13.1374 36.3867 13.0137C36.263 12.8835 36.1165 12.7826 35.9473 12.7109C35.778 12.6393 35.5957 12.6035 35.4004 12.6035C35.2051 12.6035 35.0228 12.6393 34.8535 12.7109C34.6842 12.7826 34.5345 12.8835 34.4043 13.0137C34.2806 13.1374 34.1829 13.2839 34.1113 13.4531C34.0397 13.6224 34.0039 13.8047 34.0039 14V24H31.2012V14C31.2012 13.4206 31.3086 12.877 31.5234 12.3691C31.7448 11.8548 32.0443 11.4089 32.4219 11.0312C32.806 10.6471 33.252 10.3477 33.7598 10.1328C34.2741 9.91146 34.821 9.80078 35.4004 9.80078C35.9212 9.80078 36.4225 9.89518 36.9043 10.084C37.3861 10.2663 37.819 10.5332 38.2031 10.8848C38.5872 10.5332 39.0169 10.2663 39.4922 10.084C39.974 9.89518 40.4753 9.80078 40.9961 9.80078C41.5755 9.80078 42.1191 9.91146 42.627 10.1328C43.1413 10.3477 43.5872 10.6471 43.9648 11.0312C44.349 11.4089 44.6484 11.8548 44.8633 12.3691C45.0846 12.877 45.1953 13.4206 45.1953 14V24ZM58.75 18.4043C58.75 19.179 58.6035 19.9082 58.3105 20.5918C58.0176 21.2689 57.6172 21.8613 57.1094 22.3691C56.6016 22.8704 56.0059 23.2676 55.3223 23.5605C54.6452 23.8535 53.9193 24 53.1445 24C52.3698 24 51.6406 23.8535 50.957 23.5605C50.2799 23.2676 49.6875 22.8704 49.1797 22.3691C48.6784 21.8613 48.2812 21.2689 47.9883 20.5918C47.6953 19.9082 47.5488 19.179 47.5488 18.4043V9.99609H50.3418V18.4043C50.3418 18.7884 50.4134 19.1497 50.5566 19.4883C50.7064 19.8268 50.9082 20.123 51.1621 20.377C51.416 20.6309 51.7122 20.8327 52.0508 20.9824C52.3958 21.1257 52.7604 21.1973 53.1445 21.1973C53.5286 21.1973 53.89 21.1257 54.2285 20.9824C54.5736 20.8327 54.873 20.6309 55.127 20.377C55.3809 20.123 55.5794 19.8268 55.7227 19.4883C55.8724 19.1497 55.9473 18.7884 55.9473 18.4043V9.99609H58.75V18.4043ZM60.3613 14.1953C60.3613 13.6159 60.472 13.0723 60.6934 12.5645C60.9147 12.0566 61.2142 11.6139 61.5918 11.2363C61.9759 10.8522 62.4219 10.5495 62.9297 10.3281C63.4375 10.1068 63.9811 9.99609 64.5605 9.99609H70.9863V12.7988H64.5605C64.3652 12.7988 64.1829 12.8346 64.0137 12.9062C63.8444 12.9779 63.6947 13.0788 63.5645 13.209C63.4408 13.3327 63.3431 13.4792 63.2715 13.6484C63.1999 13.8177 63.1641 14 63.1641 14.1953C63.1641 14.3906 63.1999 14.5762 63.2715 14.752C63.3431 14.9212 63.4408 15.071 63.5645 15.2012C63.6947 15.3249 63.8444 15.4225 64.0137 15.4941C64.1829 15.5658 64.3652 15.6016 64.5605 15.6016H67.3633C67.9427 15.6016 68.4863 15.7122 68.9941 15.9336C69.5085 16.1484 69.9544 16.4479 70.332 16.832C70.7161 17.2096 71.0156 17.6556 71.2305 18.1699C71.4518 18.6777 71.5625 19.2214 71.5625 19.8008C71.5625 20.3802 71.4518 20.9238 71.2305 21.4316C71.0156 21.9395 70.7161 22.3854 70.332 22.7695C69.9544 23.1471 69.5085 23.4466 68.9941 23.668C68.4863 23.8893 67.9427 24 67.3633 24H61.1426V21.1973H67.3633C67.5586 21.1973 67.7409 21.1615 67.9102 21.0898C68.0794 21.0182 68.2259 20.9206 68.3496 20.7969C68.4798 20.6667 68.5807 20.5169 68.6523 20.3477C68.724 20.1784 68.7598 19.9961 68.7598 19.8008C68.7598 19.6055 68.724 19.4232 68.6523 19.2539C68.5807 19.0846 68.4798 18.9382 68.3496 18.8145C68.2259 18.6842 68.0794 18.5833 67.9102 18.5117C67.7409 18.4401 67.5586 18.4043 67.3633 18.4043H64.5605C63.9811 18.4043 63.4375 18.2936 62.9297 18.0723C62.4219 17.8509 61.9759 17.5514 61.5918 17.1738C61.2142 16.7897 60.9147 16.3438 60.6934 15.8359C60.472 15.3216 60.3613 14.7747 60.3613 14.1953ZM76.2109 24H73.4082V9.99609H76.2109V24ZM90 22.5645C89.349 23.1243 88.6198 23.554 87.8125 23.8535C87.0052 24.153 86.1686 24.3027 85.3027 24.3027C84.6387 24.3027 83.9974 24.2148 83.3789 24.0391C82.7669 23.8698 82.1908 23.6289 81.6504 23.3164C81.1165 22.9974 80.6283 22.6165 80.1855 22.1738C79.7428 21.7311 79.362 21.2428 79.043 20.709C78.7305 20.1686 78.4863 19.5924 78.3105 18.9805C78.1413 18.362 78.0566 17.7207 78.0566 17.0566C78.0566 16.3926 78.1413 15.7513 78.3105 15.1328C78.4863 14.5143 78.7305 13.9382 79.043 13.4043C79.362 12.8639 79.7428 12.3724 80.1855 11.9297C80.6283 11.487 81.1165 11.1094 81.6504 10.7969C82.1908 10.4779 82.7669 10.2337 83.3789 10.0645C83.9974 9.88867 84.6387 9.80078 85.3027 9.80078C86.1686 9.80078 87.0052 9.95052 87.8125 10.25C88.6198 10.543 89.349 10.9727 90 11.5391L88.5156 13.9805C88.1055 13.5378 87.6204 13.1992 87.0605 12.9648C86.5007 12.724 85.9147 12.6035 85.3027 12.6035C84.6842 12.6035 84.1048 12.7207 83.5645 12.9551C83.0241 13.1895 82.5521 13.5085 82.1484 13.9121C81.7448 14.3092 81.4258 14.7812 81.1914 15.3281C80.957 15.8685 80.8398 16.4447 80.8398 17.0566C80.8398 17.6686 80.957 18.2448 81.1914 18.7852C81.4258 19.319 81.7448 19.7878 82.1484 20.1914C82.5521 20.5951 83.0241 20.9141 83.5645 21.1484C84.1048 21.3828 84.6842 21.5 85.3027 21.5C85.9147 21.5 86.5007 21.3828 87.0605 21.1484C87.6204 20.9076 88.1055 20.5658 88.5156 20.123L90 22.5645ZM104.941 17.0566C104.941 17.7207 104.854 18.362 104.678 18.9805C104.508 19.5924 104.268 20.1686 103.955 20.709C103.643 21.2428 103.265 21.7311 102.822 22.1738C102.38 22.6165 101.891 22.9974 101.357 23.3164C100.824 23.6289 100.247 23.8698 99.6289 24.0391C99.0104 24.2148 98.3691 24.3027 97.7051 24.3027C97.041 24.3027 96.3997 24.2148 95.7812 24.0391C95.1693 23.8698 94.5931 23.6289 94.0527 23.3164C93.5189 22.9974 93.0306 22.6165 92.5879 22.1738C92.1452 21.7311 91.7643 21.2428 91.4453 20.709C91.1328 20.1686 90.8887 19.5924 90.7129 18.9805C90.5436 18.362 90.459 17.7207 90.459 17.0566C90.459 16.3926 90.5436 15.7513 90.7129 15.1328C90.8887 14.5143 91.1328 13.9382 91.4453 13.4043C91.7643 12.8704 92.1452 12.3822 92.5879 11.9395C93.0306 11.4967 93.5189 11.1191 94.0527 10.8066C94.5931 10.4941 95.1693 10.2533 95.7812 10.084C96.3997 9.9082 97.041 9.82031 97.7051 9.82031C98.3691 9.82031 99.0104 9.9082 99.6289 10.084C100.247 10.2533 100.824 10.4941 101.357 10.8066C101.891 11.1191 102.38 11.4967 102.822 11.9395C103.265 12.3822 103.643 12.8704 103.955 13.4043C104.268 13.9382 104.508 14.5143 104.678 15.1328C104.854 15.7513 104.941 16.3926 104.941 17.0566ZM102.158 17.0566C102.158 16.4447 102.041 15.8685 101.807 15.3281C101.572 14.7812 101.253 14.3092 100.85 13.9121C100.452 13.5085 99.9805 13.1895 99.4336 12.9551C98.8932 12.7207 98.3171 12.6035 97.7051 12.6035C97.0866 12.6035 96.5072 12.7207 95.9668 12.9551C95.4264 13.1895 94.9544 13.5085 94.5508 13.9121C94.1471 14.3092 93.8281 14.7812 93.5938 15.3281C93.3594 15.8685 93.2422 16.4447 93.2422 17.0566C93.2422 17.6686 93.3594 18.2448 93.5938 18.7852C93.8281 19.319 94.1471 19.7878 94.5508 20.1914C94.9544 20.5951 95.4264 20.9141 95.9668 21.1484C96.5072 21.3828 97.0866 21.5 97.7051 21.5C98.3171 21.5 98.8932 21.3828 99.4336 21.1484C99.9805 20.9141 100.452 20.5951 100.85 20.1914C101.253 19.7878 101.572 19.319 101.807 18.7852C102.041 18.2448 102.158 17.6686 102.158 17.0566ZM120.684 24H117.891V14C117.891 13.8047 117.852 13.6224 117.773 13.4531C117.702 13.2839 117.601 13.1374 117.471 13.0137C117.347 12.8835 117.201 12.7826 117.031 12.7109C116.862 12.6393 116.68 12.6035 116.484 12.6035C116.289 12.6035 116.107 12.6393 115.938 12.7109C115.768 12.7826 115.618 12.8835 115.488 13.0137C115.365 13.1374 115.267 13.2839 115.195 13.4531C115.124 13.6224 115.088 13.8047 115.088 14V24H112.285V14C112.285 13.8047 112.249 13.6224 112.178 13.4531C112.106 13.2839 112.005 13.1374 111.875 13.0137C111.751 12.8835 111.605 12.7826 111.436 12.7109C111.266 12.6393 111.084 12.6035 110.889 12.6035C110.693 12.6035 110.511 12.6393 110.342 12.7109C110.173 12.7826 110.023 12.8835 109.893 13.0137C109.769 13.1374 109.671 13.2839 109.6 13.4531C109.528 13.6224 109.492 13.8047 109.492 14V24H106.689V14C106.689 13.4206 106.797 12.877 107.012 12.3691C107.233 11.8548 107.533 11.4089 107.91 11.0312C108.294 10.6471 108.74 10.3477 109.248 10.1328C109.762 9.91146 110.309 9.80078 110.889 9.80078C111.41 9.80078 111.911 9.89518 112.393 10.084C112.874 10.2663 113.307 10.5332 113.691 10.8848C114.076 10.5332 114.505 10.2663 114.98 10.084C115.462 9.89518 115.964 9.80078 116.484 9.80078C117.064 9.80078 117.607 9.91146 118.115 10.1328C118.63 10.3477 119.076 10.6471 119.453 11.0312C119.837 11.4089 120.137 11.8548 120.352 12.3691C120.573 12.877 120.684 13.4206 120.684 14V24ZM137.09 24H134.297V14C134.297 13.8047 134.258 13.6224 134.18 13.4531C134.108 13.2839 134.007 13.1374 133.877 13.0137C133.753 12.8835 133.607 12.7826 133.438 12.7109C133.268 12.6393 133.086 12.6035 132.891 12.6035C132.695 12.6035 132.513 12.6393 132.344 12.7109C132.174 12.7826 132.025 12.8835 131.895 13.0137C131.771 13.1374 131.673 13.2839 131.602 13.4531C131.53 13.6224 131.494 13.8047 131.494 14V24H128.691V14C128.691 13.8047 128.656 13.6224 128.584 13.4531C128.512 13.2839 128.411 13.1374 128.281 13.0137C128.158 12.8835 128.011 12.7826 127.842 12.7109C127.673 12.6393 127.49 12.6035 127.295 12.6035C127.1 12.6035 126.917 12.6393 126.748 12.7109C126.579 12.7826 126.429 12.8835 126.299 13.0137C126.175 13.1374 126.077 13.2839 126.006 13.4531C125.934 13.6224 125.898 13.8047 125.898 14V24H123.096V14C123.096 13.4206 123.203 12.877 123.418 12.3691C123.639 11.8548 123.939 11.4089 124.316 11.0312C124.701 10.6471 125.146 10.3477 125.654 10.1328C126.169 9.91146 126.715 9.80078 127.295 9.80078C127.816 9.80078 128.317 9.89518 128.799 10.084C129.281 10.2663 129.714 10.5332 130.098 10.8848C130.482 10.5332 130.911 10.2663 131.387 10.084C131.868 9.89518 132.37 9.80078 132.891 9.80078C133.47 9.80078 134.014 9.91146 134.521 10.1328C135.036 10.3477 135.482 10.6471 135.859 11.0312C136.243 11.4089 136.543 11.8548 136.758 12.3691C136.979 12.877 137.09 13.4206 137.09 14V24Z" fill="#2B2B2B"/>
</svg>
