<svg width="48" height="48" viewBox="0 0 48 48" fill="none" xmlns="http://www.w3.org/2000/svg">
<path d="M32 29C35.32 29 37.98 26.32 37.98 23C37.98 19.68 35.32 17 32 17C28.68 17 26 19.68 26 23C26 26.32 28.68 29 32 29ZM16 29C19.32 29 21.98 26.32 21.98 23C21.98 19.68 19.32 17 16 17C12.68 17 10 19.68 10 23C10 26.32 12.68 29 16 29ZM16 33C11.34 33 2 35.34 2 40V43C2 44.1 2.9 45 4 45H28C29.1 45 30 44.1 30 43V40C30 35.34 20.66 33 16 33ZM32 33C31.42 33 30.76 33.04 30.06 33.1C30.1 33.12 30.12 33.16 30.14 33.18C32.42 34.84 34 37.06 34 40V43C34 43.7 33.86 44.38 33.64 45H44C45.1 45 46 44.1 46 43V40C46 35.34 36.66 33 32 33Z" fill="#E4663A"/>
<path d="M38 2.00001C37.0001 1.00001 18.9999 0.99999 18 2C17 3.00002 18 24 18 24C18 24 16.0001 28 20.0001 27C24 26 21 6.00001 22 5.00001C23.0001 4.00001 33 4.00002 34 5C34.9999 5.99999 34.6666 22.2222 34.6666 22.2222C34.6666 22.2222 35.0001 27 37.0001 26C39.0001 25 39 3.00001 38 2.00001Z" fill="#E4663A"/>
</svg>
