<svg width="390" height="189" viewBox="8 0 390 189" fill="none" xmlns="http://www.w3.org/2000/svg">
<g filter="url(#filter0_d_7_530)">
<path d="M8 93.5H61.5L67 26.5L74 155.5L83 93.5H91.5L98 54V100.5L101.5 93.5H111.5L115 134L120 55L126.5 111.5L131 93.5H141L147.5 175L152 11L160.5 152.5L164.5 29.5L173 139.5L180.5 57.5L188.5 161L193 23L202.5 132L207 70.5L212 116L215 80.5L218 101.5L220 90L222.5 93.5H233.5L242.5 178L246 11L256.5 139.5L261 57.5L267.5 116L271 77.5L275.5 93.5H298L303.5 106.5L307 87.5L312 111.5L315.5 80.5L321 116L327 77.5L331.5 101.5L336 87.5L341.5 134L344.5 70.5L355 111.5L358.5 80.5L362.5 93.5H398" stroke="#E4663A" stroke-width="5" stroke-linejoin="round"/>
</g>
<path d="M8 93.5H61.5L67 26.5L74 155.5L83 93.5H91.5L98 54V100.5L101.5 93.5H111.5L115 134L120 55L126.5 111.5L131 93.5H141L147.5 175L152 11L160.5 152.5L164.5 29.5L173 139.5L180.5 57.5L188.5 161L193 23L202.5 132L207 70.5L212 116L215 80.5L218 101.5L220 90L222.5 93.5H233.5L242.5 178L246 11L256.5 139.5L261 57.5L267.5 116L271 77.5L275.5 93.5H298L303.5 106.5L307 87.5L312 111.5L315.5 80.5L321 116L327 77.5L331.5 101.5L336 87.5L341.5 134L344.5 70.5L355 111.5L358.5 80.5L362.5 93.5H398" stroke="#E6E6E6" stroke-linejoin="round"/>
<defs>
<filter id="filter0_d_7_530" x="0" y="0.5" width="406" height="188" filterUnits="userSpaceOnUse" color-interpolation-filters="sRGB">
<feFlood flood-opacity="0" result="BackgroundImageFix"/>
<feColorMatrix in="SourceAlpha" type="matrix" values="0 0 0 0 0 0 0 0 0 0 0 0 0 0 0 0 0 0 127 0" result="hardAlpha"/>
<feOffset/>
<feGaussianBlur stdDeviation="4"/>
<feComposite in2="hardAlpha" operator="out"/>
<feColorMatrix type="matrix" values="0 0 0 0 0.894118 0 0 0 0 0.4 0 0 0 0 0.227451 0 0 0 1 0"/>
<feBlend mode="normal" in2="BackgroundImageFix" result="effect1_dropShadow_7_530"/>
<feBlend mode="normal" in="SourceGraphic" in2="effect1_dropShadow_7_530" result="shape"/>
</filter>
</defs>
</svg>
